<svg width="62" height="29" viewBox="0 0 62 29" fill="none" xmlns="http://www.w3.org/2000/svg">
<path d="M6.49023 7.40625H3.67188L3.17969 9H0.982422L4.11133 0.46875H6.04492L9.19727 9H6.98828L6.49023 7.40625ZM4.16406 5.81836H5.99805L5.07812 2.85938L4.16406 5.81836ZM11.8164 9H9.83594V0H11.8164V9ZM16.1055 9.11719C15.1328 9.11719 14.3457 8.82812 13.7441 8.25C13.1426 7.66797 12.8418 6.91211 12.8418 5.98242V5.81836C12.8418 5.16992 12.9609 4.59766 13.1992 4.10156C13.4414 3.60547 13.793 3.22266 14.2539 2.95312C14.7148 2.67969 15.2617 2.54297 15.8945 2.54297C16.7852 2.54297 17.4883 2.82031 18.0039 3.375C18.5195 3.92578 18.7773 4.69531 18.7773 5.68359V6.45117H14.8516C14.9219 6.80664 15.0762 7.08594 15.3145 7.28906C15.5527 7.49219 15.8613 7.59375 16.2402 7.59375C16.8652 7.59375 17.3535 7.375 17.7051 6.9375L18.6074 8.00391C18.3613 8.34375 18.0117 8.61523 17.5586 8.81836C17.1094 9.01758 16.625 9.11719 16.1055 9.11719ZM15.8828 4.06641C15.3047 4.06641 14.9609 4.44922 14.8516 5.21484H16.8438V5.0625C16.8516 4.74609 16.7715 4.50195 16.6035 4.33008C16.4355 4.1543 16.1953 4.06641 15.8828 4.06641ZM22.1465 4.40625L23.0664 2.66016H25.1172L23.4473 5.74805L25.1992 9H23.1367L22.1406 7.125L21.1621 9H19.0879L20.8457 5.74805L19.1816 2.66016H21.2559L22.1465 4.40625ZM29.3242 9C29.2539 8.87109 29.1914 8.68164 29.1367 8.43164C28.7734 8.88867 28.2656 9.11719 27.6133 9.11719C27.0156 9.11719 26.5078 8.9375 26.0898 8.57812C25.6719 8.21484 25.4629 7.75977 25.4629 7.21289C25.4629 6.52539 25.7168 6.00586 26.2246 5.6543C26.7324 5.30273 27.4707 5.12695 28.4395 5.12695H29.0488V4.79297C29.0488 4.21094 28.7969 3.91992 28.293 3.91992C27.8242 3.91992 27.5898 4.15039 27.5898 4.61133H25.6152C25.6152 3.99805 25.875 3.5 26.3945 3.11719C26.918 2.73438 27.584 2.54297 28.3926 2.54297C29.2012 2.54297 29.8398 2.74023 30.3086 3.13477C30.7773 3.5293 31.0176 4.07031 31.0293 4.75781V7.56445C31.0371 8.14648 31.127 8.5918 31.2988 8.90039V9H29.3242ZM28.0879 7.71094C28.334 7.71094 28.5371 7.6582 28.6973 7.55273C28.8613 7.44727 28.9785 7.32812 29.0488 7.19531V6.18164H28.4746C27.7871 6.18164 27.4434 6.49023 27.4434 7.10742C27.4434 7.28711 27.5039 7.43359 27.625 7.54688C27.7461 7.65625 27.9004 7.71094 28.0879 7.71094ZM33.9414 2.66016L34.0059 3.4043C34.4434 2.83008 35.0469 2.54297 35.8164 2.54297C36.4766 2.54297 36.9688 2.74023 37.293 3.13477C37.6211 3.5293 37.791 4.12305 37.8027 4.91602V9H35.8223V4.99805C35.8223 4.67773 35.7578 4.44336 35.6289 4.29492C35.5 4.14258 35.2656 4.06641 34.9258 4.06641C34.5391 4.06641 34.252 4.21875 34.0645 4.52344V9H32.0898V2.66016H33.9414ZM38.6523 5.7832C38.6523 4.7793 38.8691 3.98828 39.3027 3.41016C39.7363 2.83203 40.3418 2.54297 41.1191 2.54297C41.6855 2.54297 42.1621 2.76562 42.5488 3.21094V0H44.5293V9H42.7539L42.6543 8.32031C42.248 8.85156 41.7324 9.11719 41.1074 9.11719C40.3535 9.11719 39.7559 8.82812 39.3145 8.25C38.873 7.67188 38.6523 6.84961 38.6523 5.7832ZM40.627 5.90625C40.627 7.03125 40.9551 7.59375 41.6113 7.59375C42.0488 7.59375 42.3613 7.41016 42.5488 7.04297V4.62891C42.3691 4.25391 42.0605 4.06641 41.623 4.06641C41.0137 4.06641 40.6836 4.55859 40.6328 5.54297L40.627 5.90625ZM49.4863 4.44727L48.8359 4.40039C48.2148 4.40039 47.8164 4.5957 47.6406 4.98633V9H45.666V2.66016H47.5176L47.582 3.47461C47.9141 2.85352 48.377 2.54297 48.9707 2.54297C49.1816 2.54297 49.3652 2.56641 49.5215 2.61328L49.4863 4.44727ZM49.7383 5.77148C49.7383 5.13867 49.8613 4.57617 50.1074 4.08398C50.3535 3.58789 50.707 3.20703 51.168 2.94141C51.6289 2.67578 52.1699 2.54297 52.791 2.54297C53.7402 2.54297 54.4883 2.83789 55.0352 3.42773C55.582 4.01367 55.8555 4.8125 55.8555 5.82422V5.89453C55.8555 6.88281 55.5801 7.66797 55.0293 8.25C54.4824 8.82812 53.7402 9.11719 52.8027 9.11719C51.9004 9.11719 51.1758 8.84766 50.6289 8.30859C50.082 7.76562 49.7871 7.03125 49.7441 6.10547L49.7383 5.77148ZM51.7129 5.89453C51.7129 6.48047 51.8047 6.91016 51.9883 7.18359C52.1719 7.45703 52.4434 7.59375 52.8027 7.59375C53.5059 7.59375 53.8652 7.05273 53.8809 5.9707V5.77148C53.8809 4.63477 53.5176 4.06641 52.791 4.06641C52.1309 4.06641 51.7734 4.55664 51.7188 5.53711L51.7129 5.89453ZM60.0449 7.21875C60.0449 7.05078 59.957 6.91602 59.7812 6.81445C59.6055 6.71289 59.2715 6.60742 58.7793 6.49805C58.2871 6.38867 57.8809 6.24609 57.5605 6.07031C57.2402 5.89062 56.9961 5.67383 56.8281 5.41992C56.6602 5.16602 56.5762 4.875 56.5762 4.54688C56.5762 3.96484 56.8164 3.48633 57.2969 3.11133C57.7773 2.73242 58.4062 2.54297 59.1836 2.54297C60.0195 2.54297 60.6914 2.73242 61.1992 3.11133C61.707 3.49023 61.9609 3.98828 61.9609 4.60547H59.9805C59.9805 4.09766 59.7129 3.84375 59.1777 3.84375C58.9707 3.84375 58.7969 3.90234 58.6562 4.01953C58.5156 4.13281 58.4453 4.27539 58.4453 4.44727C58.4453 4.62305 58.5312 4.76562 58.7031 4.875C58.875 4.98438 59.1484 5.07422 59.5234 5.14453C59.9023 5.21484 60.2344 5.29883 60.5195 5.39648C61.4727 5.72461 61.9492 6.3125 61.9492 7.16016C61.9492 7.73828 61.6914 8.20898 61.1758 8.57227C60.6641 8.93555 60 9.11719 59.1836 9.11719C58.6406 9.11719 58.1562 9.01953 57.7305 8.82422C57.3047 8.62891 56.9727 8.36328 56.7344 8.02734C56.4961 7.69141 56.377 7.33789 56.377 6.9668H58.2227C58.2305 7.25977 58.3281 7.47461 58.5156 7.61133C58.7031 7.74414 58.9434 7.81055 59.2363 7.81055C59.5059 7.81055 59.707 7.75586 59.8398 7.64648C59.9766 7.53711 60.0449 7.39453 60.0449 7.21875ZM6.04492 23.7324C6.04492 23.4316 5.9375 23.1973 5.72266 23.0293C5.51172 22.8613 5.13867 22.6875 4.60352 22.5078C4.06836 22.3281 3.63086 22.1543 3.29102 21.9863C2.18555 21.4434 1.63281 20.6973 1.63281 19.748C1.63281 19.2754 1.76953 18.8594 2.04297 18.5C2.32031 18.1367 2.71094 17.8555 3.21484 17.6562C3.71875 17.4531 4.28516 17.3516 4.91406 17.3516C5.52734 17.3516 6.07617 17.4609 6.56055 17.6797C7.04883 17.8984 7.42773 18.2109 7.69727 18.6172C7.9668 19.0195 8.10156 19.4805 8.10156 20H6.05078C6.05078 19.6523 5.94336 19.3828 5.72852 19.1914C5.51758 19 5.23047 18.9043 4.86719 18.9043C4.5 18.9043 4.20898 18.9863 3.99414 19.1504C3.7832 19.3105 3.67773 19.5156 3.67773 19.7656C3.67773 19.9844 3.79492 20.1836 4.0293 20.3633C4.26367 20.5391 4.67578 20.7227 5.26562 20.9141C5.85547 21.1016 6.33984 21.3047 6.71875 21.5234C7.64062 22.0547 8.10156 22.7871 8.10156 23.7207C8.10156 24.4668 7.82031 25.0527 7.25781 25.4785C6.69531 25.9043 5.92383 26.1172 4.94336 26.1172C4.25195 26.1172 3.625 25.9941 3.0625 25.748C2.50391 25.498 2.08203 25.1582 1.79688 24.7285C1.51562 24.2949 1.375 23.7969 1.375 23.2344H3.4375C3.4375 23.6914 3.55469 24.0293 3.78906 24.248C4.02734 24.4629 4.41211 24.5703 4.94336 24.5703C5.2832 24.5703 5.55078 24.498 5.74609 24.3535C5.94531 24.2051 6.04492 23.998 6.04492 23.7324ZM10.9961 20.3398C11.418 19.8086 11.957 19.543 12.6133 19.543C13.3125 19.543 13.8398 19.75 14.1953 20.1641C14.5508 20.5781 14.7324 21.1895 14.7402 21.998V26H12.7598V22.0449C12.7598 21.709 12.6914 21.4629 12.5547 21.3066C12.418 21.1465 12.1855 21.0664 11.8574 21.0664C11.4512 21.0664 11.1641 21.1953 10.9961 21.4531V26H9.02148V17H10.9961V20.3398ZM15.5898 22.7715C15.5898 22.1387 15.7129 21.5762 15.959 21.084C16.2051 20.5879 16.5586 20.207 17.0195 19.9414C17.4805 19.6758 18.0215 19.543 18.6426 19.543C19.5918 19.543 20.3398 19.8379 20.8867 20.4277C21.4336 21.0137 21.707 21.8125 21.707 22.8242V22.8945C21.707 23.8828 21.4316 24.668 20.8809 25.25C20.334 25.8281 19.5918 26.1172 18.6543 26.1172C17.752 26.1172 17.0273 25.8477 16.4805 25.3086C15.9336 24.7656 15.6387 24.0312 15.5957 23.1055L15.5898 22.7715ZM17.5645 22.8945C17.5645 23.4805 17.6562 23.9102 17.8398 24.1836C18.0234 24.457 18.2949 24.5938 18.6543 24.5938C19.3574 24.5938 19.7168 24.0527 19.7324 22.9707V22.7715C19.7324 21.6348 19.3691 21.0664 18.6426 21.0664C17.9824 21.0664 17.625 21.5566 17.5703 22.5371L17.5645 22.8945ZM24.4434 19.6602L24.5078 20.4043C24.957 19.8301 25.5605 19.543 26.3184 19.543C27.1191 19.543 27.6602 19.8613 27.9414 20.498C28.3711 19.8613 28.9922 19.543 29.8047 19.543C31.0898 19.543 31.75 20.3203 31.7852 21.875V26H29.8047V21.998C29.8047 21.6738 29.75 21.4375 29.6406 21.2891C29.5312 21.1406 29.332 21.0664 29.043 21.0664C28.6523 21.0664 28.3613 21.2402 28.1699 21.5879L28.1758 21.6699V26H26.1953V22.0098C26.1953 21.6777 26.1426 21.4375 26.0371 21.2891C25.9316 21.1406 25.7305 21.0664 25.4336 21.0664C25.0547 21.0664 24.7656 21.2402 24.5664 21.5879V26H22.5918V19.6602H24.4434ZM38.7988 22.877C38.7988 23.8613 38.5762 24.6484 38.1309 25.2383C37.6895 25.8242 37.0918 26.1172 36.3379 26.1172C35.7559 26.1172 35.2773 25.9043 34.9023 25.4785V28.4375H32.9277V19.6602H34.7734L34.832 20.2461C35.2109 19.7773 35.709 19.543 36.3262 19.543C37.1074 19.543 37.7148 19.832 38.1484 20.4102C38.582 20.9844 38.7988 21.7754 38.7988 22.7832V22.877ZM36.8242 22.7539C36.8242 21.6289 36.4961 21.0664 35.8398 21.0664C35.3711 21.0664 35.0586 21.2344 34.9023 21.5703V24.0664C35.0742 24.418 35.3906 24.5938 35.8516 24.5938C36.4805 24.5938 36.8047 24.0508 36.8242 22.9648V22.7539ZM42.7422 26.1172C41.7695 26.1172 40.9824 25.8281 40.3809 25.25C39.7793 24.668 39.4785 23.9121 39.4785 22.9824V22.8184C39.4785 22.1699 39.5977 21.5977 39.8359 21.1016C40.0781 20.6055 40.4297 20.2227 40.8906 19.9531C41.3516 19.6797 41.8984 19.543 42.5312 19.543C43.4219 19.543 44.125 19.8203 44.6406 20.375C45.1562 20.9258 45.4141 21.6953 45.4141 22.6836V23.4512H41.4883C41.5586 23.8066 41.7129 24.0859 41.9512 24.2891C42.1895 24.4922 42.498 24.5938 42.877 24.5938C43.502 24.5938 43.9902 24.375 44.3418 23.9375L45.2441 25.0039C44.998 25.3438 44.6484 25.6152 44.1953 25.8184C43.7461 26.0176 43.2617 26.1172 42.7422 26.1172ZM42.5195 21.0664C41.9414 21.0664 41.5977 21.4492 41.4883 22.2148H43.4805V22.0625C43.4883 21.7461 43.4082 21.502 43.2402 21.3301C43.0723 21.1543 42.832 21.0664 42.5195 21.0664ZM50.0488 21.4473L49.3984 21.4004C48.7773 21.4004 48.3789 21.5957 48.2031 21.9863V26H46.2285V19.6602H48.0801L48.1445 20.4746C48.4766 19.8535 48.9395 19.543 49.5332 19.543C49.7441 19.543 49.9277 19.5664 50.084 19.6133L50.0488 21.4473Z" fill="black"/>
</svg>
