<svg width="360" height="20" viewBox="0 0 360 20" fill="none" xmlns="http://www.w3.org/2000/svg">
<path d="M7.89283 0.54544H14.9515L22.5235 19.2187H15.2081L11.2296 7.37948L7.02655 19.2187H0L7.89283 0.54544ZM5.64691 12.1601H16.3632V16.9728H5.64691V12.1601Z" fill="#000042"/>
<path d="M23.1313 0.54544H29.9974V13.5397H37.794V19.2187H23.1313V0.54544Z" fill="#000042"/>
<path d="M38.9944 0.54544H55.486V5.67899H45.8606V7.31531H54.6197V12.4489H45.8606V14.0852H55.7106V19.2187H38.9944V0.54544Z" fill="#000042"/>
<path d="M56.2164 0.54544H64.2055L66.5797 4.42769L68.954 0.54544H77.0394L70.9753 9.4329L77.6169 19.2187H69.4032L66.5797 14.9194L63.8525 19.2187H55.8314L62.4087 9.75375L56.2164 0.54544Z" fill="#000042"/>
<path d="M83.5024 0.54544H90.561L98.133 19.2187H90.8177L86.8392 7.37948L82.6361 19.2187H75.6096L83.5024 0.54544ZM81.2565 12.1601H91.9728V16.9728H81.2565V12.1601Z" fill="#000042"/>
<path d="M98.7409 0.54544H104.388L111.318 9.20831V0.54544H117.478V19.2187H111.831L104.933 10.62V19.2187H98.7409V0.54544Z" fill="#000042"/>
<path d="M129.249 0.54544C130.832 0.54544 132.254 0.759338 133.516 1.18713C134.8 1.61493 135.891 2.23523 136.789 3.04805C137.709 3.86086 138.404 4.84479 138.875 5.99984C139.367 7.1335 139.613 8.41688 139.613 9.85C139.613 11.2831 139.367 12.5772 138.875 13.7322C138.383 14.8873 137.666 15.8712 136.725 16.684C135.805 17.4969 134.693 18.1279 133.388 18.577C132.083 19.0048 130.618 19.2187 128.992 19.2187H120.683V0.54544H129.249ZM129.442 13.9568C129.934 13.9568 130.372 13.8713 130.757 13.7002C131.164 13.5077 131.506 13.2403 131.784 12.898C132.062 12.5344 132.265 12.1066 132.393 11.6147C132.543 11.1013 132.618 10.5345 132.618 9.91417C132.618 9.29387 132.532 8.73773 132.361 8.24577C132.212 7.73241 131.976 7.29392 131.656 6.93029C131.356 6.56667 130.992 6.2886 130.565 6.09609C130.137 5.90358 129.656 5.80733 129.121 5.80733H127.549V13.9568H129.442Z" fill="#000042"/>
<path d="M150.772 0.54544C153.361 0.54544 155.361 1.13366 156.772 2.3101C158.205 3.48654 158.922 5.15494 158.922 7.31531C158.922 9.60402 158.205 11.3901 156.772 12.6735C155.361 13.9355 153.361 14.5665 150.772 14.5665H148.206V19.2187H141.34V0.54544H150.772ZM150.772 9.4329C151.286 9.4329 151.682 9.26178 151.96 8.91954C152.259 8.57731 152.409 8.10673 152.409 7.50782C152.409 6.95168 152.259 6.51319 151.96 6.19235C151.682 5.85011 151.286 5.67899 150.772 5.67899H148.206V9.4329H150.772ZM148.847 12.128H155.457L159.724 19.2187H151.992L148.847 12.128Z" fill="#000042"/>
<path d="M170.166 0.0962547C171.684 0.0962547 173.075 0.342237 174.337 0.834203C175.62 1.30478 176.722 1.97856 177.641 2.85554C178.583 3.71113 179.31 4.73784 179.823 5.93567C180.337 7.11211 180.593 8.41688 180.593 9.85C180.593 11.2831 180.337 12.5986 179.823 13.7964C179.31 14.9942 178.583 16.0423 177.641 16.9407C176.722 17.8177 175.62 18.5022 174.337 18.9941C173.075 19.4647 171.684 19.7 170.166 19.7C168.647 19.7 167.246 19.4647 165.963 18.9941C164.679 18.5022 163.567 17.8177 162.626 16.9407C161.706 16.0423 160.989 14.9942 160.476 13.7964C159.963 12.5986 159.706 11.2831 159.706 9.85C159.706 8.41688 159.963 7.11211 160.476 5.93567C160.989 4.73784 161.706 3.71113 162.626 2.85554C163.567 1.97856 164.679 1.30478 165.963 0.834203C167.246 0.342237 168.647 0.0962547 170.166 0.0962547ZM170.262 5.80733C169.791 5.80733 169.342 5.90358 168.914 6.09609C168.487 6.2886 168.112 6.56667 167.791 6.93029C167.471 7.29392 167.214 7.73241 167.021 8.24577C166.829 8.73773 166.733 9.28317 166.733 9.88209C166.733 10.481 166.829 11.0371 167.021 11.5505C167.214 12.0425 167.471 12.4703 167.791 12.8339C168.134 13.1975 168.508 13.4863 168.914 13.7002C169.342 13.8927 169.791 13.9889 170.262 13.9889C170.711 13.9889 171.139 13.8927 171.545 13.7002C171.952 13.4863 172.305 13.1975 172.604 12.8339C172.904 12.4703 173.139 12.0425 173.31 11.5505C173.481 11.0371 173.567 10.481 173.567 9.88209C173.567 9.28317 173.481 8.73773 173.31 8.24577C173.139 7.73241 172.904 7.29392 172.604 6.93029C172.305 6.56667 171.952 6.2886 171.545 6.09609C171.139 5.90358 170.711 5.80733 170.262 5.80733Z" fill="#000042"/>
<path d="M196.265 7.50782C195.645 7.14419 194.917 6.79126 194.083 6.44902C193.249 6.0854 192.426 5.78594 191.613 5.55065C190.821 5.29397 190.137 5.16564 189.559 5.16564C189.345 5.16564 189.164 5.20842 189.014 5.29397C188.864 5.35814 188.789 5.49718 188.789 5.71107C188.789 6.01053 188.96 6.25652 189.303 6.44902C189.666 6.62014 190.137 6.78056 190.714 6.93029C191.292 7.08002 191.923 7.25114 192.607 7.44365C193.292 7.61477 193.976 7.83936 194.661 8.11743C195.367 8.3741 196.008 8.72704 196.586 9.17622C197.163 9.62541 197.623 10.1922 197.966 10.8767C198.329 11.5398 198.511 12.3633 198.511 13.3472C198.511 14.8017 198.126 15.9996 197.356 16.9407C196.607 17.8605 195.613 18.5343 194.372 18.9621C193.153 19.3898 191.827 19.6037 190.394 19.6037C188.704 19.6037 186.971 19.3471 185.196 18.8337C183.442 18.299 181.902 17.5396 180.576 16.5557L183.078 11.4222C183.741 11.9569 184.522 12.4596 185.42 12.9301C186.319 13.3793 187.217 13.7429 188.116 14.021C189.035 14.2991 189.805 14.4381 190.426 14.4381C190.768 14.4381 191.035 14.3846 191.228 14.2777C191.442 14.1707 191.549 13.9782 191.549 13.7002C191.549 13.4007 191.367 13.1654 191.003 12.9943C190.661 12.8018 190.201 12.6414 189.624 12.513C189.046 12.3633 188.415 12.2029 187.731 12.0318C187.046 11.8606 186.351 11.6467 185.645 11.3901C184.961 11.1334 184.33 10.8018 183.752 10.3954C183.175 9.96764 182.704 9.4329 182.34 8.79121C181.998 8.14951 181.827 7.34739 181.827 6.38485C181.827 5.08008 182.169 3.95711 182.854 3.01596C183.538 2.05342 184.501 1.31547 185.741 0.802118C187.003 0.267373 188.479 0 190.169 0C191.709 0 193.238 0.213898 194.757 0.641693C196.276 1.06949 197.591 1.62562 198.703 2.3101L196.265 7.50782Z" fill="#000042"/>
<path d="M230.005 7.50782C229.385 7.14419 228.658 6.79126 227.824 6.44902C226.989 6.0854 226.166 5.78594 225.353 5.55065C224.562 5.29397 223.877 5.16564 223.3 5.16564C223.086 5.16564 222.904 5.20842 222.754 5.29397C222.604 5.35814 222.53 5.49718 222.53 5.71107C222.53 6.01053 222.701 6.25652 223.043 6.44902C223.407 6.62014 223.877 6.78056 224.455 6.93029C225.032 7.08002 225.663 7.25114 226.348 7.44365C227.032 7.61477 227.717 7.83936 228.401 8.11743C229.107 8.3741 229.749 8.72704 230.326 9.17622C230.904 9.62541 231.364 10.1922 231.706 10.8767C232.069 11.5398 232.251 12.3633 232.251 13.3472C232.251 14.8017 231.866 15.9996 231.096 16.9407C230.348 17.8605 229.353 18.5343 228.112 18.9621C226.893 19.3898 225.567 19.6037 224.134 19.6037C222.444 19.6037 220.712 19.3471 218.936 18.8337C217.182 18.299 215.642 17.5396 214.316 16.5557L216.819 11.4222C217.482 11.9569 218.262 12.4596 219.161 12.9301C220.059 13.3793 220.957 13.7429 221.856 14.021C222.776 14.2991 223.546 14.4381 224.166 14.4381C224.508 14.4381 224.776 14.3846 224.968 14.2777C225.182 14.1707 225.289 13.9782 225.289 13.7002C225.289 13.4007 225.107 13.1654 224.743 12.9943C224.401 12.8018 223.941 12.6414 223.364 12.513C222.786 12.3633 222.155 12.2029 221.471 12.0318C220.786 11.8606 220.091 11.6467 219.385 11.3901C218.701 11.1334 218.07 10.8018 217.492 10.3954C216.915 9.96764 216.444 9.4329 216.081 8.79121C215.738 8.14951 215.567 7.34739 215.567 6.38485C215.567 5.08008 215.909 3.95711 216.594 3.01596C217.278 2.05342 218.241 1.31547 219.482 0.802118C220.744 0.267373 222.219 0 223.909 0C225.449 0 226.979 0.213898 228.497 0.641693C230.016 1.06949 231.332 1.62562 232.444 2.3101L230.005 7.50782Z" fill="#000042"/>
<path d="M234.45 0.54544H241.316V7.57199H246.354V0.54544H253.188V19.2187H246.354V12.7055H241.316V19.2187H234.45V0.54544Z" fill="#000042"/>
<path d="M265.376 0.0962547C266.894 0.0962547 268.285 0.342237 269.547 0.834203C270.83 1.30478 271.932 1.97856 272.851 2.85554C273.793 3.71113 274.52 4.73784 275.033 5.93567C275.547 7.11211 275.803 8.41688 275.803 9.85C275.803 11.2831 275.547 12.5986 275.033 13.7964C274.52 14.9942 273.793 16.0423 272.851 16.9407C271.932 17.8177 270.83 18.5022 269.547 18.9941C268.285 19.4647 266.894 19.7 265.376 19.7C263.857 19.7 262.456 19.4647 261.173 18.9941C259.889 18.5022 258.777 17.8177 257.836 16.9407C256.916 16.0423 256.2 14.9942 255.686 13.7964C255.173 12.5986 254.916 11.2831 254.916 9.85C254.916 8.41688 255.173 7.11211 255.686 5.93567C256.2 4.73784 256.916 3.71113 257.836 2.85554C258.777 1.97856 259.889 1.30478 261.173 0.834203C262.456 0.342237 263.857 0.0962547 265.376 0.0962547ZM265.472 5.80733C265.001 5.80733 264.552 5.90358 264.124 6.09609C263.697 6.2886 263.322 6.56667 263.001 6.93029C262.681 7.29392 262.424 7.73241 262.231 8.24577C262.039 8.73773 261.943 9.28317 261.943 9.88209C261.943 10.481 262.039 11.0371 262.231 11.5505C262.424 12.0425 262.681 12.4703 263.001 12.8339C263.344 13.1975 263.718 13.4863 264.124 13.7002C264.552 13.8927 265.001 13.9889 265.472 13.9889C265.921 13.9889 266.349 13.8927 266.755 13.7002C267.162 13.4863 267.515 13.1975 267.814 12.8339C268.114 12.4703 268.349 12.0425 268.52 11.5505C268.691 11.0371 268.777 10.481 268.777 9.88209C268.777 9.28317 268.691 8.73773 268.52 8.24577C268.349 7.73241 268.114 7.29392 267.814 6.93029C267.515 6.56667 267.162 6.2886 266.755 6.09609C266.349 5.90358 265.921 5.80733 265.472 5.80733Z" fill="#000042"/>
<path d="M277.55 0.54544H284.737L288.908 9.65749L293.079 0.54544H300.266V19.2187H294.299V9.88209L291.154 17.422H286.662L283.518 9.88209V19.2187H277.55V0.54544Z" fill="#000042"/>
<path d="M312.615 0.54544C315.097 0.54544 317.011 1.13366 318.359 2.3101C319.706 3.48654 320.38 5.15494 320.38 7.31531C320.38 9.60402 319.706 11.3901 318.359 12.6735C317.011 13.9355 315.097 14.5665 312.615 14.5665H310.337V19.2187H303.471V0.54544H312.615ZM312.23 9.4329C312.765 9.4329 313.172 9.26178 313.45 8.91954C313.749 8.57731 313.899 8.10673 313.899 7.50782C313.899 6.95168 313.749 6.51319 313.45 6.19235C313.172 5.85011 312.765 5.67899 312.23 5.67899H310.337V9.4329H312.23Z" fill="#000042"/>
<path d="M321.841 0.54544H338.333V5.67899H328.707V7.31531H337.466V12.4489H328.707V14.0852H338.557V19.2187H321.841V0.54544Z" fill="#000042"/>
<path d="M350.678 0.54544C353.266 0.54544 355.266 1.13366 356.677 2.3101C358.111 3.48654 358.827 5.15494 358.827 7.31531C358.827 9.60402 358.111 11.3901 356.677 12.6735C355.266 13.9355 353.266 14.5665 350.678 14.5665H348.111V19.2187H341.245V0.54544H350.678ZM350.678 9.4329C351.191 9.4329 351.587 9.26178 351.865 8.91954C352.164 8.57731 352.314 8.10673 352.314 7.50782C352.314 6.95168 352.164 6.51319 351.865 6.19235C351.587 5.85011 351.191 5.67899 350.678 5.67899H348.111V9.4329H350.678ZM348.753 12.128H355.362L359.629 19.2187H351.897L348.753 12.128Z" fill="#000042"/>
</svg>
