<svg width="238" height="20" viewBox="0 0 238 20" fill="none" xmlns="http://www.w3.org/2000/svg">
<path d="M7.89283 0.54544H14.9515L22.5235 19.2187H15.2081L11.2296 7.37948L7.02655 19.2187H0L7.89283 0.54544ZM5.64691 12.1601H16.3632V16.9728H5.64691V12.1601Z" fill="#000042"/>
<path d="M23.1313 0.54544H29.9974V13.5397H37.794V19.2187H23.1313V0.54544Z" fill="#000042"/>
<path d="M38.9944 0.54544H55.486V5.67899H45.8606V7.31531H54.6197V12.4489H45.8606V14.0852H55.7106V19.2187H38.9944V0.54544Z" fill="#000042"/>
<path d="M56.2164 0.54544H64.2055L66.5797 4.42769L68.954 0.54544H77.0394L70.9753 9.4329L77.6169 19.2187H69.4032L66.5797 14.9194L63.8525 19.2187H55.8314L62.4087 9.75375L56.2164 0.54544Z" fill="#000042"/>
<path d="M107.536 7.50782C106.916 7.14419 106.188 6.79126 105.354 6.44902C104.52 6.0854 103.696 5.78594 102.884 5.55065C102.092 5.29397 101.408 5.16564 100.83 5.16564C100.616 5.16564 100.434 5.20842 100.285 5.29397C100.135 5.35814 100.06 5.49718 100.06 5.71107C100.06 6.01053 100.231 6.25652 100.573 6.44902C100.937 6.62014 101.408 6.78056 101.985 6.93029C102.563 7.08002 103.194 7.25114 103.878 7.44365C104.563 7.61477 105.247 7.83936 105.932 8.11743C106.637 8.3741 107.279 8.72704 107.857 9.17622C108.434 9.62541 108.894 10.1922 109.236 10.8767C109.6 11.5398 109.782 12.3633 109.782 13.3472C109.782 14.8017 109.397 15.9996 108.627 16.9407C107.878 17.8605 106.883 18.5343 105.643 18.9621C104.424 19.3898 103.097 19.6037 101.664 19.6037C99.9746 19.6037 98.242 19.3471 96.4666 18.8337C94.7127 18.299 93.1726 17.5396 91.8464 16.5557L94.349 11.4222C95.0121 11.9569 95.7928 12.4596 96.6912 12.9301C97.5896 13.3793 98.488 13.7429 99.3863 14.021C100.306 14.2991 101.076 14.4381 101.696 14.4381C102.039 14.4381 102.306 14.3846 102.499 14.2777C102.712 14.1707 102.819 13.9782 102.819 13.7002C102.819 13.4007 102.638 13.1654 102.274 12.9943C101.932 12.8018 101.472 12.6414 100.894 12.513C100.317 12.3633 99.6858 12.2029 99.0013 12.0318C98.3168 11.8606 97.6217 11.6467 96.9158 11.3901C96.2313 11.1334 95.6003 10.8018 95.0228 10.3954C94.4453 9.96764 93.9747 9.4329 93.6111 8.79121C93.2689 8.14951 93.0977 7.34739 93.0977 6.38485C93.0977 5.08008 93.44 3.95711 94.1244 3.01596C94.8089 2.05342 95.7715 1.31547 97.0121 0.802118C98.2741 0.267373 99.75 0 101.44 0C102.98 0 104.509 0.213898 106.028 0.641693C107.547 1.06949 108.862 1.62562 109.974 2.3101L107.536 7.50782Z" fill="#000042"/>
<path d="M111.981 0.54544H118.847V7.57199H123.884V0.54544H130.718V19.2187H123.884V12.7055H118.847V19.2187H111.981V0.54544Z" fill="#000042"/>
<path d="M142.906 0.0962547C144.425 0.0962547 145.815 0.342237 147.077 0.834203C148.361 1.30478 149.462 1.97856 150.382 2.85554C151.323 3.71113 152.05 4.73784 152.564 5.93567C153.077 7.11211 153.334 8.41688 153.334 9.85C153.334 11.2831 153.077 12.5986 152.564 13.7964C152.05 14.9942 151.323 16.0423 150.382 16.9407C149.462 17.8177 148.361 18.5022 147.077 18.9941C145.815 19.4647 144.425 19.7 142.906 19.7C141.388 19.7 139.987 19.4647 138.703 18.9941C137.42 18.5022 136.307 17.8177 135.366 16.9407C134.447 16.0423 133.73 14.9942 133.217 13.7964C132.703 12.5986 132.447 11.2831 132.447 9.85C132.447 8.41688 132.703 7.11211 133.217 5.93567C133.73 4.73784 134.447 3.71113 135.366 2.85554C136.307 1.97856 137.42 1.30478 138.703 0.834203C139.987 0.342237 141.388 0.0962547 142.906 0.0962547ZM143.002 5.80733C142.532 5.80733 142.083 5.90358 141.655 6.09609C141.227 6.2886 140.853 6.56667 140.532 6.93029C140.211 7.29392 139.954 7.73241 139.762 8.24577C139.569 8.73773 139.473 9.28317 139.473 9.88209C139.473 10.481 139.569 11.0371 139.762 11.5505C139.954 12.0425 140.211 12.4703 140.532 12.8339C140.874 13.1975 141.249 13.4863 141.655 13.7002C142.083 13.8927 142.532 13.9889 143.002 13.9889C143.452 13.9889 143.879 13.8927 144.286 13.7002C144.692 13.4863 145.045 13.1975 145.345 12.8339C145.644 12.4703 145.879 12.0425 146.051 11.5505C146.222 11.0371 146.307 10.481 146.307 9.88209C146.307 9.28317 146.222 8.73773 146.051 8.24577C145.879 7.73241 145.644 7.29392 145.345 6.93029C145.045 6.56667 144.692 6.2886 144.286 6.09609C143.879 5.90358 143.452 5.80733 143.002 5.80733Z" fill="#000042"/>
<path d="M155.081 0.54544H162.268L166.439 9.65749L170.61 0.54544H177.797V19.2187H171.829V9.88209L168.685 17.422H164.193L161.049 9.88209V19.2187H155.081V0.54544Z" fill="#000042"/>
<path d="M190.146 0.54544C192.627 0.54544 194.541 1.13366 195.889 2.3101C197.237 3.48654 197.91 5.15494 197.91 7.31531C197.91 9.60402 197.237 11.3901 195.889 12.6735C194.541 13.9355 192.627 14.5665 190.146 14.5665H187.868V19.2187H181.002V0.54544H190.146ZM189.761 9.4329C190.296 9.4329 190.702 9.26178 190.98 8.91954C191.28 8.57731 191.429 8.10673 191.429 7.50782C191.429 6.95168 191.28 6.51319 190.98 6.19235C190.702 5.85011 190.296 5.67899 189.761 5.67899H187.868V9.4329H189.761Z" fill="#000042"/>
<path d="M199.372 0.54544H215.863V5.67899H206.238V7.31531H214.997V12.4489H206.238V14.0852H216.088V19.2187H199.372V0.54544Z" fill="#000042"/>
<path d="M228.208 0.54544C230.796 0.54544 232.796 1.13366 234.208 2.3101C235.641 3.48654 236.358 5.15494 236.358 7.31531C236.358 9.60402 235.641 11.3901 234.208 12.6735C232.796 13.9355 230.796 14.5665 228.208 14.5665H225.641V19.2187H218.775V0.54544H228.208ZM228.208 9.4329C228.721 9.4329 229.117 9.26178 229.395 8.91954C229.695 8.57731 229.844 8.10673 229.844 7.50782C229.844 6.95168 229.695 6.51319 229.395 6.19235C229.117 5.85011 228.721 5.67899 228.208 5.67899H225.641V9.4329H228.208ZM226.283 12.128H232.892L237.16 19.2187H229.427L226.283 12.128Z" fill="#000042"/>
</svg>
