<svg width="3845" height="211" viewBox="0 0 3845 211" fill="none" xmlns="http://www.w3.org/2000/svg">
<path d="M84.378 5.83101H159.838L240.786 205.457H162.582L120.05 78.89L75.117 205.457H0L84.378 5.83101ZM60.368 129.997H174.93V181.447H60.368V129.997Z" fill="#000042"/>
<path d="M247.284 5.83101H320.686V144.746H404.035V205.457H247.284V5.83101Z" fill="#000042"/>
<path d="M416.868 5.83101H593.17V60.711H490.27V78.204H583.909V133.084H490.27V150.577H595.571V205.457H416.868V5.83101Z" fill="#000042"/>
<path d="M600.979 5.83101H686.386L711.768 47.334L737.15 5.83101H823.586L758.759 100.842L829.76 205.457H741.952L711.768 159.495L682.613 205.457H596.863L667.178 104.272L600.979 5.83101Z" fill="#000042"/>
<path d="M892.679 5.83101H968.139L1049.09 205.457H970.883L928.351 78.89L883.418 205.457H808.301L892.679 5.83101ZM868.669 129.997H983.231V181.447H868.669V129.997Z" fill="#000042"/>
<path d="M1055.59 5.83101H1115.95L1190.04 98.441V5.83101H1255.9V205.457H1195.53L1121.78 113.533V205.457H1055.59V5.83101Z" fill="#000042"/>
<path d="M1381.73 5.83101C1398.65 5.83101 1413.86 8.11767 1427.35 12.691C1441.07 17.2643 1452.73 23.8957 1462.34 32.585C1472.17 41.2743 1479.6 51.793 1484.63 64.141C1489.89 76.2603 1492.52 89.9803 1492.52 105.301C1492.52 120.622 1489.89 134.456 1484.63 146.804C1479.37 159.152 1471.71 169.671 1461.65 178.36C1451.82 187.049 1439.93 193.795 1425.98 198.597C1412.03 203.17 1396.37 205.457 1378.99 205.457H1290.15V5.83101H1381.73ZM1383.79 149.205C1389.05 149.205 1393.74 148.29 1397.85 146.461C1402.2 144.403 1405.86 141.545 1408.83 137.886C1411.8 133.999 1413.97 129.425 1415.35 124.166C1416.95 118.678 1417.75 112.618 1417.75 105.987C1417.75 99.3557 1416.83 93.4103 1415 88.151C1413.4 82.663 1410.89 77.9753 1407.46 74.088C1404.26 70.2007 1400.37 67.228 1395.8 65.17C1391.22 63.112 1386.08 62.083 1380.36 62.083H1363.55V149.205H1383.79Z" fill="#000042"/>
<path d="M1611.83 5.83101C1639.5 5.83101 1660.88 12.1193 1675.97 24.696C1691.29 37.2727 1698.95 55.1087 1698.95 78.204C1698.95 102.671 1691.29 121.765 1675.97 135.485C1660.88 148.976 1639.5 155.722 1611.83 155.722H1584.39V205.457H1510.98V5.83101H1611.83ZM1611.83 100.842C1617.31 100.842 1621.55 99.0127 1624.52 95.354C1627.72 91.6953 1629.32 86.6647 1629.32 80.262C1629.32 74.3167 1627.72 69.629 1624.52 66.199C1621.55 62.5403 1617.31 60.711 1611.83 60.711H1584.39V100.842H1611.83ZM1591.25 129.654H1661.9L1707.52 205.457H1624.86L1591.25 129.654Z" fill="#000042"/>
<path d="M1819.15 1.02901C1835.38 1.02901 1850.25 3.65867 1863.74 8.91801C1877.46 13.9487 1889.24 21.1517 1899.07 30.527C1909.13 39.6737 1916.9 50.6497 1922.39 63.455C1927.88 76.0317 1930.62 89.9803 1930.62 105.301C1930.62 120.622 1927.88 134.685 1922.39 147.49C1916.9 160.295 1909.13 171.5 1899.07 181.104C1889.24 190.479 1877.46 197.797 1863.74 203.056C1850.25 208.087 1835.38 210.602 1819.15 210.602C1802.91 210.602 1787.94 208.087 1774.22 203.056C1760.5 197.797 1748.61 190.479 1738.54 181.104C1728.71 171.5 1721.05 160.295 1715.56 147.49C1710.07 134.685 1707.33 120.622 1707.33 105.301C1707.33 89.9803 1710.07 76.0317 1715.56 63.455C1721.05 50.6497 1728.71 39.6737 1738.54 30.527C1748.61 21.1517 1760.5 13.9487 1774.22 8.91801C1787.94 3.65867 1802.91 1.02901 1819.15 1.02901ZM1820.18 62.083C1815.15 62.083 1810.35 63.112 1805.77 65.17C1801.2 67.228 1797.2 70.2007 1793.77 74.088C1790.34 77.9753 1787.59 82.663 1785.53 88.151C1783.48 93.4103 1782.45 99.2413 1782.45 105.644C1782.45 112.047 1783.48 117.992 1785.53 123.48C1787.59 128.739 1790.34 133.313 1793.77 137.2C1797.43 141.087 1801.43 144.174 1805.77 146.461C1810.35 148.519 1815.15 149.548 1820.18 149.548C1824.98 149.548 1829.55 148.519 1833.9 146.461C1838.24 144.174 1842.02 141.087 1845.22 137.2C1848.42 133.313 1850.93 128.739 1852.76 123.48C1854.59 117.992 1855.51 112.047 1855.51 105.644C1855.51 99.2413 1854.59 93.4103 1852.76 88.151C1850.93 82.663 1848.42 77.9753 1845.22 74.088C1842.02 70.2007 1838.24 67.228 1833.9 65.17C1829.55 63.112 1824.98 62.083 1820.18 62.083Z" fill="#000042"/>
<path d="M2098.16 80.262C2091.53 76.3747 2083.76 72.6017 2074.84 68.943C2065.92 65.0557 2057.12 61.8543 2048.43 59.339C2039.97 56.595 2032.65 55.223 2026.48 55.223C2024.19 55.223 2022.25 55.6803 2020.65 56.595C2019.04 57.281 2018.24 58.7673 2018.24 61.054C2018.24 64.2553 2020.07 66.885 2023.73 68.943C2027.62 70.7723 2032.65 72.4873 2038.82 74.088C2045 75.6887 2051.74 77.518 2059.06 79.576C2066.38 81.4053 2073.7 83.8063 2081.01 86.779C2088.56 89.523 2095.42 93.296 2101.59 98.098C2107.77 102.9 2112.68 108.96 2116.34 116.277C2120.23 123.366 2122.17 132.169 2122.17 142.688C2122.17 158.237 2118.06 171.043 2109.83 181.104C2101.82 190.937 2091.19 198.14 2077.93 202.713C2064.89 207.286 2050.71 209.573 2035.39 209.573C2017.33 209.573 1998.81 206.829 1979.83 201.341C1961.08 195.624 1944.61 187.507 1930.44 176.988L1957.19 122.108C1964.28 127.825 1972.63 133.198 1982.23 138.229C1991.83 143.031 2001.44 146.918 2011.04 149.891C2020.87 152.864 2029.11 154.35 2035.74 154.35C2039.4 154.35 2042.25 153.778 2044.31 152.635C2046.6 151.492 2047.74 149.434 2047.74 146.461C2047.74 143.26 2045.8 140.744 2041.91 138.915C2038.25 136.857 2033.34 135.142 2027.16 133.77C2020.99 132.169 2014.24 130.454 2006.93 128.625C1999.61 126.796 1992.18 124.509 1984.63 121.765C1977.31 119.021 1970.57 115.477 1964.39 111.132C1958.22 106.559 1953.19 100.842 1949.3 93.982C1945.64 87.122 1943.81 78.547 1943.81 68.257C1943.81 54.3083 1947.47 42.3033 1954.79 32.242C1962.11 21.952 1972.4 14.063 1985.66 8.57501C1999.15 2.85834 2014.93 0 2032.99 0C2049.46 0 2065.81 2.28666 2082.04 6.85999C2098.28 11.4333 2112.34 17.3787 2124.23 24.696L2098.16 80.262Z" fill="#000042"/>
<path d="M2458.86 80.262C2452.23 76.3747 2444.46 72.6017 2435.54 68.943C2426.62 65.0557 2417.82 61.8543 2409.13 59.339C2400.67 56.595 2393.35 55.223 2387.18 55.223C2384.89 55.223 2382.95 55.6803 2381.34 56.595C2379.74 57.281 2378.94 58.7673 2378.94 61.054C2378.94 64.2553 2380.77 66.885 2384.43 68.943C2388.32 70.7723 2393.35 72.4873 2399.52 74.088C2405.7 75.6887 2412.44 77.518 2419.76 79.576C2427.08 81.4053 2434.4 83.8063 2441.71 86.779C2449.26 89.523 2456.12 93.296 2462.29 98.098C2468.47 102.9 2473.38 108.96 2477.04 116.277C2480.93 123.366 2482.87 132.169 2482.87 142.688C2482.87 158.237 2478.76 171.043 2470.52 181.104C2462.52 190.937 2451.89 198.14 2438.63 202.713C2425.59 207.286 2411.41 209.573 2396.09 209.573C2378.03 209.573 2359.51 206.829 2340.53 201.341C2321.78 195.624 2305.31 187.507 2291.14 176.988L2317.89 122.108C2324.98 127.825 2333.32 133.198 2342.93 138.229C2352.53 143.031 2362.14 146.918 2371.74 149.891C2381.57 152.864 2389.81 154.35 2396.44 154.35C2400.1 154.35 2402.95 153.778 2405.01 152.635C2407.3 151.492 2408.44 149.434 2408.44 146.461C2408.44 143.26 2406.5 140.744 2402.61 138.915C2398.95 136.857 2394.04 135.142 2387.86 133.77C2381.69 132.169 2374.94 130.454 2367.62 128.625C2360.31 126.796 2352.88 124.509 2345.33 121.765C2338.01 119.021 2331.27 115.477 2325.09 111.132C2318.92 106.559 2313.89 100.842 2310 93.982C2306.34 87.122 2304.51 78.547 2304.51 68.257C2304.51 54.3083 2308.17 42.3033 2315.49 32.242C2322.81 21.952 2333.1 14.063 2346.36 8.57501C2359.85 2.85834 2375.63 0 2393.69 0C2410.16 0 2426.51 2.28666 2442.74 6.85999C2458.98 11.4333 2473.04 17.3787 2484.93 24.696L2458.86 80.262Z" fill="#000042"/>
<path d="M2506.38 5.83101H2579.78V80.948H2633.63V5.83101H2706.69V205.457H2633.63V135.828H2579.78V205.457H2506.38V5.83101Z" fill="#000042"/>
<path d="M2836.99 1.02901C2853.22 1.02901 2868.09 3.65867 2881.58 8.91801C2895.3 13.9487 2907.07 21.1517 2916.91 30.527C2926.97 39.6737 2934.74 50.6497 2940.23 63.455C2945.72 76.0317 2948.46 89.9803 2948.46 105.301C2948.46 120.622 2945.72 134.685 2940.23 147.49C2934.74 160.295 2926.97 171.5 2916.91 181.104C2907.07 190.479 2895.3 197.797 2881.58 203.056C2868.09 208.087 2853.22 210.602 2836.99 210.602C2820.75 210.602 2805.77 208.087 2792.05 203.056C2778.33 197.797 2766.44 190.479 2756.38 181.104C2746.55 171.5 2738.89 160.295 2733.4 147.49C2727.91 134.685 2725.17 120.622 2725.17 105.301C2725.17 89.9803 2727.91 76.0317 2733.4 63.455C2738.89 50.6497 2746.55 39.6737 2756.38 30.527C2766.44 21.1517 2778.33 13.9487 2792.05 8.91801C2805.77 3.65867 2820.75 1.02901 2836.99 1.02901ZM2838.02 62.083C2832.99 62.083 2828.18 63.112 2823.61 65.17C2819.04 67.228 2815.04 70.2007 2811.61 74.088C2808.18 77.9753 2805.43 82.663 2803.37 88.151C2801.32 93.4103 2800.29 99.2413 2800.29 105.644C2800.29 112.047 2801.32 117.992 2803.37 123.48C2805.43 128.739 2808.18 133.313 2811.61 137.2C2815.26 141.087 2819.27 144.174 2823.61 146.461C2828.18 148.519 2832.99 149.548 2838.02 149.548C2842.82 149.548 2847.39 148.519 2851.74 146.461C2856.08 144.174 2859.85 141.087 2863.06 137.2C2866.26 133.313 2868.77 128.739 2870.6 123.48C2872.43 117.992 2873.35 112.047 2873.35 105.644C2873.35 99.2413 2872.43 93.4103 2870.6 88.151C2868.77 82.663 2866.26 77.9753 2863.06 74.088C2859.85 70.2007 2856.08 67.228 2851.74 65.17C2847.39 63.112 2842.82 62.083 2838.02 62.083Z" fill="#000042"/>
<path d="M2967.14 5.83101H3043.97L3088.56 103.243L3133.15 5.83101H3209.98V205.457H3146.19V105.644L3112.57 186.249H3064.55L3030.94 105.644V205.457H2967.14V5.83101Z" fill="#000042"/>
<path d="M3342 5.83101C3368.53 5.83101 3388.99 12.1193 3403.4 24.696C3417.8 37.2727 3425.01 55.1087 3425.01 78.204C3425.01 102.671 3417.8 121.765 3403.4 135.485C3388.99 148.976 3368.53 155.722 3342 155.722H3317.65V205.457H3244.25V5.83101H3342ZM3337.89 100.842C3343.6 100.842 3347.95 99.0127 3350.92 95.354C3354.12 91.6953 3355.72 86.6647 3355.72 80.262C3355.72 74.3167 3354.12 69.629 3350.92 66.199C3347.95 62.5403 3343.6 60.711 3337.89 60.711H3317.65V100.842H3337.89Z" fill="#000042"/>
<path d="M3440.63 5.83101H3616.93V60.711H3514.03V78.204H3607.67V133.084H3514.03V150.577H3619.33V205.457H3440.63V5.83101Z" fill="#000042"/>
<path d="M3748.9 5.83101C3776.57 5.83101 3797.95 12.1193 3813.05 24.696C3828.37 37.2727 3836.03 55.1087 3836.03 78.204C3836.03 102.671 3828.37 121.765 3813.05 135.485C3797.95 148.976 3776.57 155.722 3748.9 155.722H3721.46V205.457H3648.06V5.83101H3748.9ZM3748.9 100.842C3754.39 100.842 3758.62 99.0127 3761.6 95.354C3764.8 91.6953 3766.4 86.6647 3766.4 80.262C3766.4 74.3167 3764.8 69.629 3761.6 66.199C3758.62 62.5403 3754.39 60.711 3748.9 60.711H3721.46V100.842H3748.9ZM3728.32 129.654H3798.98L3844.6 205.457H3761.94L3728.32 129.654Z" fill="#000042"/>
</svg>
