<svg width="347" height="95" overflow="visible" style="display: block;" viewBox="0 0 347 95" fill="none" xmlns="http://www.w3.org/2000/svg">
<g id="Occhio">
<g id="Vector">
<path d="M210.053 6.0155L214.49 6.00004C214.681 18.1503 214.328 30.4689 214.55 42.6204C218.244 32.7653 226.072 28.0988 236.58 27.9C247.795 27.6876 255.913 33.1559 257.47 44.4786C258.264 50.2474 257.931 56.2338 257.931 62.0808L257.934 89L253.471 88.9805L253.459 49.6531C253.178 44.7583 252.41 39.4284 248.683 35.9284C241.563 29.2444 228.156 30.7528 221.579 37.3723C213.088 45.9144 214.502 57.8767 214.505 68.7117V88.9957L210 88.9795C210.147 86.6343 210.024 82.9251 210.024 80.4888L210.053 6.0155Z" fill="var(--fill-0, #828282)"/>
<path d="M171.259 28.0749C185.465 27.3186 197.758 32.1864 199.419 47.6024L195.06 47.6009C194.859 46.2549 194.673 45.0148 194.268 43.7101C193.034 39.6665 190.188 36.2887 186.382 34.3464C183.452 32.8165 180.781 32.2235 177.525 31.8553C162.95 30.2068 153.133 40.9885 151.658 54.6792C150.311 67.186 154.752 82.6354 168.997 85.5956C172.743 86.3741 177.571 86.3352 181.243 85.2147C190.128 81.8475 193.795 76.77 195.652 67.6798L200 67.6823C199.204 72.807 197.869 76.6887 194.615 80.8942C186.266 91.6821 168.393 92.8052 157.829 84.6853C151.463 79.7918 148.469 72.1217 147.4 64.4117C145.105 47.8487 152.632 30.1447 171.259 28.0749Z" fill="var(--fill-0, #828282)"/>
<path d="M111.218 28.106C124.5 27.2004 137.166 32.0015 139.2 46.2997C139.262 46.7385 139.327 47.1809 139.388 47.6203L134.991 47.619C134.845 46.0705 134.516 44.5438 134.012 43.0701C130.352 32.6296 116.754 29.8487 107.173 32.9336C87.1156 39.3913 85.9523 75.3454 104.416 84.0765C109.314 86.3925 116.625 86.7874 121.752 85.0069C123.254 84.5014 124.691 83.8217 126.03 82.9824C132.085 79.2436 134.14 74.1459 135.637 67.6839L140 67.6916C137.907 79.8931 130.675 88.3409 117.715 89.7898C100.548 91.7091 88.8954 80.2784 87.2784 63.9439C86.3441 54.5074 87.572 44.8857 93.8769 37.2449C98.1774 32.0341 104.426 28.7414 111.218 28.106Z" fill="var(--fill-0, #828282)"/>
<path d="M272 29.0293C273.277 28.9755 274.684 29.0115 275.972 29.0158C275.772 48.918 276.155 68.9899 275.922 88.8869C275.394 89.0637 272.747 88.9819 272.035 88.9763L272.039 50.8323C272.039 43.664 272.133 36.1731 272 29.0293Z" fill="var(--fill-0, #828282)"/>
<path d="M272.033 6.00886L275.928 6.00004C276.046 9.71483 276.001 14.2859 275.923 18L272.013 17.999C271.99 14.0023 271.998 10.0055 272.033 6.00886Z" fill="var(--fill-0, #828282)"/>
<path d="M0 44.3628C0.615051 41.5468 0.656405 38.3737 1.34131 35.3579C3.62352 25.3095 9.10106 15.7012 17.9704 10.1112C35.4525 -0.906974 60.7939 3.07689 71.9267 21.2279C79.0056 32.7694 80.4278 46.4756 77.7136 59.5785C75.519 69.7994 69.6779 79.4628 60.7583 85.0887C55.2974 88.5329 49.9675 90.0532 43.6655 90.786C43.3159 90.8266 42.8003 90.8998 42.4634 91H36.8539C36.0501 90.7666 32.5861 90.3697 31.4883 90.1884C26.7434 89.374 22.2121 87.6107 18.1672 85.0045C7.25122 77.9596 1.3982 65.7366 0.317349 53.0624C0.24931 52.2645 0.167402 51.4262 0 50.6453V44.3628ZM39.8581 86.47C86.5243 85.5387 84.3719 7.36735 38.9885 8.4894L38.9119 8.49152C15.9985 9.51792 4.49852 27.7227 5.12202 49.3897C5.70278 69.5714 18.3984 86.6623 39.8581 86.47Z" fill="var(--fill-0, #828282)"/>
<path d="M347 61.5328C346.676 62.5945 346.526 64.7131 346.339 65.8875C344.45 77.3035 336.966 86.4977 325.374 89.0893C308.959 92.7941 292.939 85.0736 289.106 68.1638C285.33 51.5238 290.99 32.1414 309.682 27.9085C326.343 24.1349 342.431 32.2773 345.969 49.3632C346.396 51.4248 346.548 53.7794 347 55.7122V61.5328ZM318.54 81.2074C332.662 79.9241 337.313 67.5553 336.241 55.0022C335.333 44.3683 327.937 34.8377 316.265 35.8351C302.198 37.1907 297.513 49.9053 298.762 62.3337C299.338 68.0722 301.684 73.6803 306.25 77.4029C309.314 79.9259 314.35 81.6088 318.308 81.2355C318.385 81.2281 318.463 81.2187 318.54 81.2074Z" fill="var(--fill-0, #828282)"/>
</g>
</g>
</svg>
